<svg xmlns="http://www.w3.org/2000/svg" width="800" height="800" viewBox="0 0 800 800">
  <metadata><?xpacket begin="﻿" id="W5M0MpCehiHzreSzNTczkc9d"?>
<x:xmpmeta xmlns:x="adobe:ns:meta/" x:xmptk="Adobe XMP Core 5.6-c140 79.160451, 2017/05/06-01:08:21        ">
   <rdf:RDF xmlns:rdf="http://www.w3.org/1999/02/22-rdf-syntax-ns#">
      <rdf:Description rdf:about=""/>
   </rdf:RDF>
</x:xmpmeta>
                                                                                                    
                                                                                                    
                                                                                                    
                                                                                                    
                                                                                                    
                                                                                                    
                                                                                                    
                                                                                                    
                                                                                                    
                                                                                                    
                                                                                                    
                                                                                                    
                                                                                                    
                                                                                                    
                                                                                                    
                                                                                                    
                                                                                                    
                                                                                                    
                                                                                                    
                                                                                                    
                           
<?xpacket end="w"?></metadata>
<defs>
    <style>
      .cls-1 {
        fill: #00225a;
        fill-rule: evenodd;
      }
    </style>
  </defs>
  <path id="Forma_ZARAPHONE" data-name="Forma ZARAPHONE" class="cls-1" d="M15.461,358.957v16.284H64.314q-2.2,3.114-5.489,7.594t-6.953,9.7q-3.662,5.216-7.776,10.8T36.137,414.4q-9.151,12.81-19.212,26.714h80.69V424.827H48.762q2.2-3.109,5.489-7.594t6.953-9.7q3.658-5.215,7.685-10.8t7.868-11.07q8.963-12.805,19.212-26.714H15.461Zm115.82,3.019a42.22,42.22,0,0,0-13.174,8.783,40.645,40.645,0,0,0-8.874,12.991,41.4,41.4,0,0,0,0,31.928,41.489,41.489,0,0,0,22.048,22.048,40.091,40.091,0,0,0,15.918,3.2h40.986V399.76a39.971,39.971,0,0,0-3.2-16.01,41.322,41.322,0,0,0-21.774-21.774A41.4,41.4,0,0,0,131.281,361.976ZM147.2,424.644a24.771,24.771,0,0,1-9.7-1.922,24.393,24.393,0,0,1-13.266-13.265,24.792,24.792,0,0,1-1.921-9.7,24.15,24.15,0,0,1,1.921-9.606,24.857,24.857,0,0,1,5.307-7.868,24.942,24.942,0,0,1,17.656-7.227,24.132,24.132,0,0,1,9.606,1.921,24.856,24.856,0,0,1,13.174,13.174,24.132,24.132,0,0,1,1.921,9.606v24.884H147.2Zm90.571-65.87a40.149,40.149,0,0,0-15.919,3.2,42.231,42.231,0,0,0-13.174,8.783A40.645,40.645,0,0,0,199.8,383.75a39.92,39.92,0,0,0-3.2,16.01v41.168h16.468V399.76a24.132,24.132,0,0,1,1.921-9.606,24.856,24.856,0,0,1,13.174-13.174,24.111,24.111,0,0,1,9.606-1.921H246V358.774H237.77Zm41.715,3.2a42.231,42.231,0,0,0-13.174,8.783,40.645,40.645,0,0,0-8.874,12.991,41.4,41.4,0,0,0,0,31.928,41.489,41.489,0,0,0,22.048,22.048,40.091,40.091,0,0,0,15.918,3.2h40.986V399.76a39.954,39.954,0,0,0-3.2-16.01,41.322,41.322,0,0,0-21.774-21.774A41.4,41.4,0,0,0,279.485,361.976ZM295.4,424.644a24.775,24.775,0,0,1-9.7-1.922,24.387,24.387,0,0,1-13.265-13.265,24.775,24.775,0,0,1-1.922-9.7,24.133,24.133,0,0,1,1.922-9.606,24.838,24.838,0,0,1,5.306-7.868,24.942,24.942,0,0,1,17.656-7.227,24.132,24.132,0,0,1,9.606,1.921,24.856,24.856,0,0,1,13.174,13.174,24.133,24.133,0,0,1,1.922,9.606v24.884H295.4Zm74.652-62.3a41.078,41.078,0,0,0-21.865,21.774,39.92,39.92,0,0,0-3.2,16.01v74.1h16.285V441.294h24.7a39.91,39.91,0,0,0,16.01-3.2,41.738,41.738,0,0,0,21.956-22.048,41.4,41.4,0,0,0,0-31.928,40.709,40.709,0,0,0-8.874-12.991,42.579,42.579,0,0,0-13.082-8.783A41.4,41.4,0,0,0,370.055,362.342Zm15.919,62.667h-24.7V400.126a24.132,24.132,0,0,1,1.921-9.606,24.856,24.856,0,0,1,13.174-13.174,24.112,24.112,0,0,1,9.606-1.922,24.74,24.74,0,0,1,22.963,15.1,24.15,24.15,0,0,1,1.921,9.606,24.748,24.748,0,0,1-24.884,24.883h0Zm78.035-64.039a39.236,39.236,0,0,0-11.436,6.221V325.839H436.289V440.928h16.284V399.76a24.132,24.132,0,0,1,1.921-9.606,24.856,24.856,0,0,1,13.174-13.174,24.118,24.118,0,0,1,9.606-1.921,24.734,24.734,0,0,1,22.963,15.095,24.132,24.132,0,0,1,1.921,9.606v41.168h16.284V399.76a39.954,39.954,0,0,0-3.2-16.01,40.709,40.709,0,0,0-8.874-12.991,42.579,42.579,0,0,0-13.082-8.783A41.416,41.416,0,0,0,464.009,360.97Zm66.052,55.074a42.125,42.125,0,0,0,8.782,13.174,40.576,40.576,0,0,0,29,12.076,39.906,39.906,0,0,0,16.01-3.2,41.744,41.744,0,0,0,21.957-22.048,41.4,41.4,0,0,0,0-31.928,40.728,40.728,0,0,0-8.875-12.991,42.579,42.579,0,0,0-13.082-8.783,41.4,41.4,0,0,0-31.928,0,41.069,41.069,0,0,0-21.865,21.774A41.4,41.4,0,0,0,530.061,416.044Zm14.82-25.524a24.871,24.871,0,0,1,5.306-7.868,25.117,25.117,0,0,1,35.314,0,24.921,24.921,0,0,1,5.306,7.868,24.132,24.132,0,0,1,1.921,9.606,24.884,24.884,0,1,1-49.768,0A24.15,24.15,0,0,1,544.881,390.52Zm73.278,9.422v41.169h16.284V399.942a24.132,24.132,0,0,1,1.922-9.605,24.859,24.859,0,0,1,13.173-13.174,24.119,24.119,0,0,1,9.606-1.922,24.736,24.736,0,0,1,22.963,15.1,24.131,24.131,0,0,1,1.921,9.605v41.169h16.285V399.942a39.953,39.953,0,0,0-3.2-16.009,40.742,40.742,0,0,0-8.874-12.991,42.584,42.584,0,0,0-13.083-8.783,41.4,41.4,0,0,0-31.928,0,41.078,41.078,0,0,0-21.865,21.774,39.9,39.9,0,0,0-3.2,16.009h0Zm150.034,17.749a24.372,24.372,0,0,1-28.361,4.757l45.56-45.56-5.672-5.672a40.12,40.12,0,0,0-13.631-9.057,41.1,41.1,0,0,0-30.922,0,40.1,40.1,0,0,0-13.632,9.057,39.167,39.167,0,0,0-8.965,13.54,41.925,41.925,0,0,0-2.928,15.37,42.619,42.619,0,0,0,2.928,15.461,38.944,38.944,0,0,0,8.965,13.631,41.016,41.016,0,0,0,58.185,0l5.672-5.672-11.527-11.527Zm-21.5-42.084a24.554,24.554,0,0,1,14.729,2.379q-2.565,2.565-7.227,7.136t-9.7,9.606l-9.514,9.514-6.679,6.679a24.483,24.483,0,0,1,4.758-28.361A23.541,23.541,0,0,1,746.694,375.607Z"/>
</svg>
